<?xml version="1.0" encoding="UTF-8"?>
<svg id="_レイヤー_2" data-name="レイヤー 2" xmlns="http://www.w3.org/2000/svg" viewBox="0 0 141.73 92.44">
  <defs>
    <style>
      .cls-1 {
        fill: #036eb8;
      }

      .cls-2 {
        fill: none;
        stroke: #2ea7e0;
        stroke-miterlimit: 10;
        stroke-width: 1.76px;
      }

      .cls-3 {
        fill: #fff;
      }

      .cls-4 {
        fill: #2ea7e0;
      }
    </style>
  </defs>
  <g id="_デザイン" data-name="デザイン">
    <path class="cls-3" d="M83.64,92.1c-1.49.33-2.89.42-4.33.28l-5.98-.57c-1.37-.13-2.69-.47-3.95-1-.08.03-.17.06-.25.08-.37.12-.73.22-1.08.3-2.02.48-4.15.73-6.15.73-1.21,0-2.4-.09-3.54-.27-1.85-.3-5.26-.87-8.96-2.99-.4-.23-.81-.49-1.2-.78-1.05-.77-2.03-1.59-2.93-2.48-.66-.64-1.61-.87-2.5-.63l-8.61,2.31c-1.43.38-2.89.57-4.34.57-1.53,0-3.05-.21-4.52-.63-2.72-.76-5.13-2.16-7.17-4.15-2.17-2.11-3.67-4.67-4.46-7.62l-1.74-6.5c-.22-.8-.71-1.5-1.4-1.96-2.92-1.98-4.98-5.03-5.67-8.56C2.41,45.84,1.56,39.97.14,30.24c-1.04-7.15,3.68-13.85,10.73-15.25l5.98-1.18c.86-.17,1.74-.26,2.62-.26,2.69,0,5.29.79,7.52,2.29,1.76,1.18,3.18,2.72,4.2,4.5.47.82,1.56.98,2.31.41.57-.44,1.17-.85,1.81-1.25.75-.49,1.52-.92,2.32-1.29.84-.39,1.47-1.11,1.79-1.98.58-1.62,1.47-3.12,2.65-4.44.35-.39.71-.75,1.1-1.1s.69-.75.89-1.22c.61-1.37,1.45-2.63,2.46-3.72,2.44-2.61,5.89-4.16,9.45-4.27q6.01-.18,6.19-.18c1.01,0,2.01.11,2.98.33,2.27-1.09,4.72-1.64,7.31-1.64.48,0,.96.02,1.47.06.51.04.98.1,1.45.19,1.27.23,3.75.69,6.36,2.22.9-.19,1.81-.28,2.73-.28.54,0,1.1.03,1.66.1l2.3.29c1.39.17,2.73.56,3.99,1.14.01,0,.02,0,.03,0,.62-.08,1.35-.12,2.08-.12,1.47,0,2.83.15,4.08.32h0s2.96.38,4.87.94c2.01.57,3.79,1.2,5.85,2.37,3.75,2.14,6.41,5.3,7.71,9.16l.36.11c3.47,1.02,6.44,3.44,8.13,6.65.71,1.35,1.2,2.84,1.42,4.36.16.11.31.22.47.33,3.51,2.55,5.56,6.6,5.57,10.87.82.74,1.54,1.57,2.16,2.49.7,1.05,1.25,2.19,1.64,3.39,3.75,3.09,5.58,8.02,4.71,12.83l-1.04,5.78c-.23,1.26-.63,2.47-1.2,3.61.26,1.59.23,3.23-.08,4.79l-1.22,6.16c-1.24,6.26-6.77,10.83-13.16,10.87h-.4c-.89,0-1.96-.02-3.12-.11-.88-.07-1.76.13-2.51.58-1.76,1.06-3.75,1.72-5.79,1.9l-5.77.51c-.39.04-.8.05-1.2.05-3.82,0-7.37-1.6-9.88-4.29-.78-.83-1.99-1.08-3.08-.75-.11.03-.22.07-.33.1-.79.23-1.49.7-2.05,1.31-.97,1.08-2.13,2.02-3.45,2.77-1.12.64-2.33,1.1-3.59,1.38Z"/>
    <g>
      <path class="cls-4" d="M18.1,55.62c-2.38-12.07-3.23-17.92-4.61-27.39l5.98-1.18c1.3,6.65,2.14,13.97,3.64,20.86,3.86-.69,8.85-1.58,13.3-2.45l1.09,6.96c-3.95.86-16.8,3.19-19.4,3.18Z"/>
      <path class="cls-1" d="M40.38,49.53c-.85-.72-1.56-1.57-2.07-2.46-.6-1.49-.99-2.9-1.12-4.24-.3-1.48-.14-2.92.27-4.47.31-1.45.93-2.82,1.75-4.11,1.02-1.53,1.91-2.47,3.28-3.32,1.04-.68,1.68-.84,2.8-1.05,1.65-.15,3.14-.1,4.35.09.94.15,1.9.43,2.83.85,1.25.86,2.11,1.73,2.7,2.87.44,1.08.64,2.19.74,3.29-.05,1.23.04,2.36-.32,3.61-.07.88-.42,1.59-1.09,1.94-1.58.21-3.84-.13-5.35-.34-1.55-.18-3.72-.42-6.34-.88-.22,1.08.07,1.94.43,3,.48.62,1.35,1.42,2.65,1.71,1.71.63,3.05.5,4.12-.41.53-.41.85-.98,1.05-1.72l4.91,1.58c-.58,1.64-1.22,2.5-1.98,3.38-.72.85-1.88,1.31-2.98,1.94-1.15.43-2.26.59-3.4.72-1.16.27-2.36,0-4.58-.56-1.02-.4-1.94-.86-2.66-1.44ZM49.62,35.1c-1.17-.39-2.05-.45-2.97-.26-.94.31-1.82.51-2.69,2.26.64.34,5.39,1.04,6.97,1.06.03-1.85-.98-2.75-1.31-3.07Z"/>
      <polygon class="cls-1" points="56.94 27 52.49 27.15 52.12 20.8 56.58 20.53 56.94 27"/>
      <polygon class="cls-1" points="67.9 25.89 62.45 26.51 62.24 20.18 67.69 20.04 67.9 25.89"/>
      <path class="cls-4" d="M68.57,40.44c-1.59.35-3.58.72-5.08.51-1.23-.16-2.47-.35-3.7-1.25-.79-.56-1.82-1.87-2.15-3.03-.35-1.39-.74-6.22-.71-9.66l-.35-6.47-.21-5.55,5.8-.18.07,5.38.21,6.33c-.09,4,.02,5.99,1.04,7.07,1.15.71,2.98.67,4.95.56l.12,6.29Z"/>
      <path class="cls-1" d="M70.59,23.77l1.34-3.45c-1.38.04-1.97-.23-2.68-1.43-.33-.68-.43-1.41-.25-2.16.15-.98.57-1.87,1.34-2.53.81-.59,1.55-.76,2.54-.68,1.43.27,2.33.45,3.08,1.69.51.77.64,2.07.44,3.21-.52,2.29-1.29,3.76-3.11,6.06l-2.7-.71Z"/>
      <path class="cls-1" d="M69.2,49.38c-1.1-.73-2.4-1.57-3.44-3.37l3.41-3.82,2.23,1.88c1.08.8,2.52,1.36,4.32,1.88,1.36.19,2.33.2,3.15-.22.35-.4.42-1.12-.18-1.63-1.36-.78-2.92-1.52-4.22-2.21-1.37-.74-2.51-1.82-3.37-3.32-.7-1.15-.76-2.41-.27-3.86.67-1.38,1.66-2.46,3.1-3.26,1.9-.94,3.31-1.2,5.08-1.12,1.58.05,2.91.23,4.62.77,1.28.41,2.44.99,3.58,2.08l-2.54,4.73c-.45-.48-1.02-.91-1.77-1.25-1.48-.76-2.33-.97-3.64-1.04-1.3.09-2.14.81-2.42,1.61.1.45.48.72,1.19.86,1.4.79,2.18.94,3.41,1.62,1.2.78,2.27,1.47,3.04,2.86.52,1.08.81,2.14.69,3.32-.08.99-.41,2.21-.82,3.14-.45.88-1.25,1.58-2.28,2.07-1.07.48-2.23.68-3.53.57-1.96-.12-3.5,0-5.47-.63-1.2-.4-3-1.11-3.86-1.67Z"/>
      <path class="cls-4" d="M60.5,78.32c-1.47-.24-2.86-.5-4.35-1.36-1.13-.83-2.16-1.84-2.94-3.02-.74-1-1.3-2.36-1.92-4.01l6.6-1.71c.5,1.45,1.33,2.66,2.23,3.31,1.31.59,2.51.66,3.96.2.76-.26,1.43-.92,1.85-1.61.17-.94.12-1.83-.3-2.43-.95-1.03-1.87-1.63-3.25-2.01-1.17-.15-2.31-.32-3.41-.53-1.24-.26-2.46-.63-3.63-1.14-1.33-.82-2.33-1.57-2.99-2.7-.84-.9-1.33-2.15-1.62-3.53-.22-1.43.16-2.62,1.06-3.97.93-1.35,2.18-2.35,3.54-3.26,1.46-.78,3-1.37,4.7-1.66.99-.12,2.12-.15,3.2-.05,1.01.11,2.05.38,3.11,1.07.86.66,1.62,1.38,2.22,2.26.47.98.88,1.59,1.39,3.74l-6.24,1.43c-.69-1.91-1.37-2.49-2.35-2.81-.8-.24-1.62-.09-2.27.15-.64.27-1.13.85-1.67,1.53-.17.28-.23.84.13,1.54.11.29.58.8,1.16.94,1.49.2,2.54.34,3.89.73,1.28.29,2.58.64,3.77,1.22,1.92,1,3.31,2.08,4.49,3.13,1.22,1.04,1.75,2.6,2.37,3.9.15.98.11,2.13-.02,3.06-.29,1.09-.83,1.96-1.35,2.9-.69,1.22-1.81,2.11-3.1,2.77-1.18.63-2.41,1.23-3.75,1.67-1.45.34-3.09.49-4.48.27Z"/>
      <path class="cls-4" d="M95.32,63.85c-.39,3.1-.79,4.51-1.3,5.57-.48,1.15-1.18,2.15-2.29,2.94-1.66,1.11-3.56,1.82-5.59,1.48-1.66,0-3.54-.25-4.92-1,.12-1.94.71-6.49.97-8.57-.09,1.06-.11,1.97-.02,2.52.93.78,2.98,1.38,4.44,1.32,1.3-.07,1.83-.41,2.27-1.13.74-1.36,1.18-2.89.63-4.55-.25-1.16-.83-2.33-1.87-2.61-1.23-.41-3.56.04-4.92.74.28-1.73.79-5.54.79-5.54,1.32-.65,3.23-.9,4.71-.92,1.02.23,2.12.3,2.94.9.93.67,1.64,1.27,2.38,2.1,1.04,1.2,1.87,3.88,1.76,6.73Z"/>
      <path class="cls-1" d="M83.61,54.05l-.09.99s-.51,3.81-.79,5.54c-.25,1.2-.44,2.54-.55,3.68v.02c-.26,2.08-.85,6.63-.97,8.57l-.6,6.1-5.98-.58c.56-8.44,1.59-16.57,2.7-24.65l6.28.33Z"/>
      <path class="cls-1" d="M98.34,71.9c-1.91-9.8-2.91-19.4-4.51-29.14l5.5-.86c1.12,9.92,3.16,19.52,4.65,29.34l-5.64.65Z"/>
      <path class="cls-4" d="M110.18,57.5l-5.69.83c.3,8.04.86,13.57,1.53,19.75l5.76-.51c-.65-6.1-1.16-12.25-1.6-20.06Z"/>
      <path class="cls-1" d="M109.72,51.47c-.05.72-.18,1.39-.58,2.01-.55.55-1.2.95-1.96,1.13-.93.11-1.9-.04-2.57-.58-.88-.85-1.36-2.13-1.15-3.53.23-.79.51-1.43.93-1.89.83-.55,1.64-.85,2.73-.95.48.07.97.44,1.39.93.69.81,1.09,1.73,1.2,2.87Z"/>
      <path class="cls-1" d="M125.96,68.96l-1.23,6.17c-1.62,0-3.65-.05-5.08-.58-1.16-.42-2.33-.88-3.33-2.01-.67-.72-1.38-2.22-1.46-3.44-.04-1.43.62-6.22,1.39-9.57l5.48.69c-.93,3.9-1.25,5.85-.49,7.14.97.92,2.77,1.29,4.72,1.6Z"/>
      <polygon class="cls-1" points="123.96 48.72 122.87 53.99 117.26 53.13 118.27 47.67 123.96 48.72"/>
      <polygon class="cls-4" points="128.23 55.02 127.19 60.78 121.72 60.22 116.24 59.53 111.85 58.7 112.87 52.43 117.26 53.13 122.87 53.99 128.23 55.02"/>
      <path class="cls-1" d="M93.13,26.93c-1.09.39-1.46.49-1.87.63-.42.14-.85.18-1.3.18-.48-.11-.86-.35-1.13-.79-.37-.49-.49-1.09-.46-1.73.02-.62.05-1.27.16-2.06l.28-1.94c-.69.44-2.61,1.64-3.01,2.06l.42-3.68c.79-.51,2.64-1.55,3.17-1.85l1.99.23c-.11.65-.28,1.82-.42,3.1-.14,1.25-.25,1.89-.37,2.54.02.48-.18.93.02,1.27.26.26.62.42.93.35.44,0,.93-.23,1.3-.32l.28,2.01Z"/>
      <path class="cls-1" d="M83.64,21.26l-.37,3.61c-.46.41-.92.83-1.38,1.22l-1.43-1.45c.49-.72,2.54-2.77,3.17-3.38Z"/>
      <path class="cls-4" d="M86.75,15.99c-.12,1.02-.46,2.87-.53,3.61l-.42,3.68c-.28,1.52-.37,2.82-.53,4.05l-2.22-.28.23-2.19.37-3.61.11-.81.32-2.24c.18-.76.3-1.6.41-2.5l2.27.28Z"/>
      <path class="cls-1" d="M84.07,18.21l-.32,2.24c-.9-.09-1.82-.32-2.52-.3l.42-2.12c.71.05,1.48.02,2.42.18Z"/>
      <path class="cls-1" d="M97.2,25.57c.5-.28,2.37-1.22,2.81-1.47.46-.26.87-.59,1.31-.94.27-.29.55-.59.55-.97.07-.36-.03-.72-.29-.88-.75-.55-1.74-.9-4.21-1.39-1.41-.21-2.98-.41-3.72-.35l.35-2.45c.77-.09,2.04.07,2.83.18.74.09,2.37.38,2.85.52,1.4.4,2.12.66,2.99,1.15.71.41,1.35.93,1.63,1.86.21.76.23,1.42-.04,2.22-.35,1.03-.83,1.59-1.49,2.09-.59.52-1.52,1.05-2.4,1.49-1.03.52-1.92,1.03-2.16,1.1l-1.01-2.17Z"/>
      <path class="cls-4" d="M101.22,37.41l-2.04.79c-.33-1.78-.72-2.89-.99-3.83l1.97-.63c.49.9,1,2.71,1.06,3.67Z"/>
      <path class="cls-4" d="M92.23,35.11c-.32.9-.78,3.35-.72,3.95l-2.26-.23c-.05-.81.09-1.67.14-2.31.09-.56.25-1.18.53-1.71l2.31.3Z"/>
      <path class="cls-1" d="M97.8,37.48c0,.6-.04,1.27-.42,1.75-.44.62-1.15.95-1.89,1.13l-.72.09c-.67.02-1.36-.07-2.57-.85l.95-1.92c.62.33,1.13.44,1.73.46.35-.02.49-.12.56-.32.11-.19.04-.53-.11-.92-.25-.56-.58-1.11-.99-1.62-.42-.44-.72-.83-1.18-1.45l1.69-1.23c.42.42.88.78,1.23,1.15.35.42.67.83.93,1.25.21.39.41.76.53,1.18.14.39.23.83.25,1.3Z"/>
      <path class="cls-4" d="M97.01,30.65l-.76,1.89c-.56-.23-3.33-1.43-4.3-1.83l1.02-1.97c1.38.62,2.84,1.22,4.04,1.92Z"/>
      <path class="cls-1" d="M100.2,29.31c-.28-.23-.76-.3-1.25-.25-.25.07-.62.16-.83.35-.41.3-.65.62-.58,1.29.04.28.19.67.35.85.23.3.63.51,1.02.53.56.04.99-.14,1.39-.42.21-.28.35-.58.37-.92.07-.63-.21-1.2-.48-1.43ZM99.51,30.95c-.35.19-.76.14-.86-.11-.04-.16,0-.44.09-.63.14-.09.26-.16.41-.18.42.11.56.42.37.92Z"/>
      <path class="cls-4" d="M113.6,29.45c-.44,1.39-.95,2.79-1.23,3.56-.88,2.4-1.41,3.56-1.97,4.58-.65,1.08-1.16,1.92-2.15,2.82l-2.01-1.41c.39-.37,1.04-1.29,1.48-1.94.49-.78,1.06-2.04,1.75-3.72.63-1.53,1.45-3.67,1.8-4.58l2.34.69Z"/>
      <path class="cls-4" d="M106.58,32.82l.55.02-.18,2.08c-.32.09-.72.16-1.18.19-.42.02-.9.04-1.29-.04-.42-.18-.71-.51-.88-1.02-.12-.37-.21-.79-.14-1.2.07-.41.14-.85.39-1.64.19-.85.41-1.38.79-2.19.42-.93.72-1.59.99-1.97l2.36.74c-.23.44-.63,1.23-1,2.13-.51,1.23-.86,2.03-.93,2.56.11.19.3.3.53.33Z"/>
      <path class="cls-1" d="M111.99,44.97c-.23-.07-.48-.12-.67-.07-.3.14-.49.37-.65.63-.07.3-.07.6.09.85.14.12.25.23.49.33.18.05.33.09.48.07.28-.11.44-.25.55-.46.12-.18.18-.41.19-.65-.05-.33-.19-.56-.48-.71Z"/>
      <path class="cls-4" d="M115.1,37.95c-.85,2.24-1.59,4.23-2.36,6.14l-1.22-.37c.42-2.27,1.08-4.95,1.46-6.38.72.12,1.43.33,2.12.62Z"/>
      <path class="cls-1" d="M119.49,38.76c-1.32,1.99-2.49,3.76-3.68,5.45l-1.11-.63c.93-2.13,2.19-4.58,2.87-5.89.67.28,1.32.63,1.92,1.08Z"/>
      <path class="cls-4" d="M115.18,45.69c-.07.23-.18.44-.33.58-.14.19-.33.3-.62.33-.18-.02-.32-.09-.48-.19-.21-.14-.3-.26-.41-.42-.09-.28-.02-.58.12-.83.19-.23.44-.41.78-.48.19-.02.42.09.63.21.23.19.33.46.3.79Z"/>
      <path class="cls-2" d="M129.16,50.1l-.37-.07.06-.3c.27-1.31,0-2.68-.75-3.79-.75-1.11-1.91-1.88-3.23-2.13l-2.45-.46c.15-.23.3-.45.46-.68l.75-1.13c1.5-2.23.96-5.25-1.21-6.83-.95-.69-1.95-1.25-2.99-1.67-.54-.22-1.1-.32-1.66-.34.19-.55.39-1.13.58-1.71.42-1.28.3-2.68-.33-3.87s-1.71-2.08-3.01-2.46l-2.36-.69c-.47-.14-.94-.2-1.41-.2-.09,0-.19,0-.28,0-.44-.33-.94-.58-1.48-.75l-.13-.04c.15-1.15.08-2.33-.27-3.59-.6-2.01-1.93-3.62-3.95-4.77-1.34-.76-2.47-1.15-4.05-1.6-.95-.28-2.99-.6-3.59-.67-.96-.13-1.99-.25-2.96-.25-.4,0-.78.02-1.11.06-.78.09-1.49.37-2.12.77l-.66-.07c-.79-.98-1.94-1.67-3.28-1.84l-2.27-.29c-.21-.03-.42-.04-.62-.04-1.11,0-2.2.37-3.08,1.06-.41.32-.74.72-1.03,1.14-.06-.11-.1-.24-.17-.34-1.91-3.12-4.72-3.64-6.4-3.95-.17-.03-.35-.06-.52-.07-.28-.02-.55-.03-.81-.03-1.86,0-3.52.54-5.05,1.65-.11.08-.22.16-.32.25-.42.36-.8.76-1.14,1.18-.11-.13-.21-.27-.33-.39-.93-.89-2.17-1.39-3.46-1.39-.05,0-5.94.18-5.94.18-1.33.04-2.59.61-3.5,1.58-.91.97-1.39,2.27-1.35,3.59l.02.68c-1.16.17-2.22.74-3.01,1.62-.88.99-1.34,2.29-1.26,3.61l.21,3.72c-.06,0-.11,0-.16,0-.75,0-1.54.03-2.35.11-.14.01-.29.03-.43.06-1.4.25-2.8.58-4.54,1.72-1.94,1.21-3.33,2.6-4.85,4.87-1.17,1.82-1.98,3.72-2.41,5.65-.37,1.44-.53,2.75-.54,4.02-1.68.31-3.36.63-4.99.92-.4-2.27-.77-4.57-1.12-6.82-.48-3.05-.98-6.21-1.57-9.22-.25-1.3-1.02-2.45-2.12-3.19-.83-.56-1.8-.85-2.79-.85-.32,0-.65.03-.97.09l-5.98,1.18c-2.61.52-4.35,3.05-3.97,5.68,1.4,9.6,2.24,15.4,4.64,27.57.46,2.34,2.52,4.03,4.9,4.03.22,0,.49-.01.79-.03-.02.78.07,1.56.28,2.34l2.72,10.13c.39,1.45,1.12,2.7,2.18,3.73,1.01.99,2.21,1.68,3.56,2.06.72.2,1.45.3,2.2.3s1.42-.09,2.14-.28l15.87-4.26c.37.77.79,1.51,1.29,2.2,1.07,1.58,2.44,2.99,4.09,4.19.15.11.3.2.45.29,2.35,1.35,4.57,1.72,6.05,1.96.69.11,1.43.17,2.19.17,1.35,0,2.81-.18,4.22-.51.13-.03.26-.07.39-.11,1.54-.5,2.87-1.13,3.96-1.7.8,1.22,2.12,2.08,3.68,2.23l5.99.58c.16.02.32.02.48.02,1.16,0,2.28-.4,3.18-1.14,1.02-.84,1.67-2.06,1.79-3.38l.06-.58s.07,0,.1,0c.46.06.93.09,1.39.09,2.49,0,4.96-.81,7.47-2.49.25-.18.47-.38.7-.58.85.65,1.9,1.04,3.02,1.04.19,0,.38-.01.58-.03l1.93-.22c.07.65.14,1.3.21,1.96.28,2.56,2.44,4.46,4.96,4.46.15,0,.3,0,.45-.02l5.77-.51c1.34-.12,2.57-.77,3.42-1.81.48-.59.8-1.27.98-2,.43.19.85.34,1.25.49,2.13.8,4.61.91,6.53.91h.35c2.37-.02,4.41-1.7,4.87-4.03l1.22-6.17c.27-1.33-.02-2.71-.8-3.83-.21-.3-.44-.57-.71-.81,1.4-.67,2.46-1.99,2.76-3.62l1.05-5.78c.49-2.7-1.29-5.29-3.99-5.8Z"/>
      <path class="cls-1" d="M24,59.95c.15-.55.43-1.02.83-1.43s.88-.68,1.45-.84l17.14-4.6c.58-.15,1.14-.16,1.68,0s1.02.42,1.43.82.68.88.84,1.46l2.72,10.13c.15.57.15,1.13,0,1.67s-.42,1.02-.82,1.43-.88.69-1.46.84l-17.14,4.6c-.57.15-1.13.15-1.68,0s-1.02-.43-1.43-.83-.69-.88-.84-1.45l-2.72-10.13c-.15-.58-.15-1.14,0-1.69ZM26.69,59.24c-.43.11-.75.36-.98.75s-.28.79-.16,1.23l2.3,8.57c.11.43.37.75.75.97s.8.28,1.22.17l17.14-4.6c.43-.12.76-.37.98-.76s.27-.79.16-1.22l-2.3-8.57c-.12-.43-.37-.76-.75-.98s-.79-.27-1.22-.16l-17.14,4.6ZM26.27,60.31c-.06.1-.07.2-.04.31l.1.39c.03.11.09.19.19.25s.2.07.31.04l.78-.21c.11-.03.19-.09.25-.19s.07-.2.04-.31l-.1-.39c-.03-.11-.09-.19-.19-.25s-.2-.07-.31-.04l-.78.21c-.11.03-.19.09-.25.19ZM27.1,63.42c-.05.1-.07.2-.04.31l.21.78c.03.11.09.19.19.25s.2.07.31.04l.78-.21c.11-.03.19-.09.25-.19s.07-.2.04-.31l-.21-.78c-.03-.11-.09-.19-.19-.25s-.2-.07-.31-.04l-.78.21c-.11.03-.19.09-.24.19ZM29.29,65.34c.06-.1.14-.16.25-.19l.78-.21c.11-.03.21-.02.31.04s.16.14.19.25l.21.78c.03.11.02.21-.04.31s-.14.16-.25.19l-.78.21c-.11.03-.21.02-.31-.04s-.16-.14-.19-.24l-.21-.78c-.03-.11-.01-.21.04-.31ZM29.44,62.8c.06-.1.14-.16.25-.19l.78-.21c.11-.03.21-.02.31.04s.16.14.19.25l.21.78c.03.11.02.21-.04.31s-.14.16-.25.19l-.78.21c-.11.03-.21.02-.31-.04s-.16-.14-.19-.24l-.21-.78c-.03-.11-.01-.21.04-.31ZM30.7,67.47c-.05.1-.07.2-.04.31l.21.78c.03.11.09.19.19.25s.2.07.31.04l.78-.21c.11-.03.19-.09.25-.19s.07-.2.04-.31l-.21-.78c-.03-.11-.09-.19-.19-.25s-.2-.07-.31-.04l-.78.21c-.11.03-.19.09-.24.19ZM31.63,64.72c-.05.1-.07.2-.04.31l.21.78c.03.11.09.19.19.25s.2.07.31.04l.78-.21c.11-.03.19-.09.25-.19s.07-.2.04-.31l-.21-.78c-.03-.11-.09-.19-.19-.25s-.2-.07-.31-.04l-.78.21c-.11.03-.19.09-.24.19ZM30.95,59.06c.06-.1.14-.16.25-.19l.78-.21c.11-.03.21-.02.31.04s.16.14.19.25l.1.39c.03.11.02.21-.04.31s-.14.16-.25.19l-.78.21c-.11.03-.21.02-.31-.04s-.16-.14-.19-.25l-.1-.39c-.03-.11-.02-.21.04-.31ZM31.78,62.17c-.05.1-.07.2-.04.31l.21.78c.03.11.09.19.19.25s.2.07.31.04l.78-.21c.11-.03.19-.09.25-.19s.07-.2.04-.31l-.21-.78c-.03-.11-.09-.19-.19-.25s-.2-.07-.31-.04l-.78.21c-.11.03-.19.09-.24.19ZM33.04,66.85c-.06.1-.07.2-.04.31l.21.78c.03.11.09.19.19.25s.2.07.31.04l8.57-2.3c.11-.03.19-.09.25-.19s.07-.2.04-.31l-.21-.78c-.03-.11-.09-.19-.19-.25s-.2-.07-.31-.04l-8.57,2.3c-.11.03-.19.09-.25.19ZM33.96,64.09c.06-.1.14-.16.25-.19l.78-.21c.11-.03.21-.02.31.04s.16.14.19.25l.21.78c.03.11.02.21-.04.31s-.14.16-.25.19l-.78.21c-.11.03-.21.02-.31-.04s-.16-.14-.19-.24l-.21-.78c-.03-.11-.01-.21.04-.31ZM34.11,61.54c.06-.1.14-.16.25-.19l.78-.21c.11-.03.21-.02.31.04s.16.14.19.25l.21.78c.03.11.02.21-.04.31s-.14.16-.25.19l-.78.21c-.11.03-.21.02-.31-.04s-.16-.14-.19-.24l-.21-.78c-.03-.11-.01-.21.04-.31ZM33.28,58.43c-.06.1-.07.2-.04.31l.1.39c.03.11.09.19.19.25s.2.07.31.04l.78-.21c.11-.03.19-.09.25-.19s.07-.2.04-.31l-.1-.39c-.03-.11-.09-.19-.19-.25s-.2-.07-.31-.04l-.78.21c-.11.03-.19.09-.25.19ZM36.3,63.47c-.05.1-.07.2-.04.31l.21.78c.03.11.09.19.19.25s.2.07.31.04l.78-.21c.11-.03.19-.09.25-.19s.07-.2.04-.31l-.21-.78c-.03-.11-.09-.19-.19-.25s-.2-.07-.31-.04l-.78.21c-.11.03-.19.09-.24.19ZM35.62,57.8c.06-.1.14-.16.25-.19l.78-.21c.11-.03.21-.02.31.04s.16.14.19.25l.1.39c.03.11.02.21-.04.31s-.14.16-.25.19l-.78.21c-.11.03-.21.02-.31-.04s-.16-.14-.19-.25l-.1-.39c-.03-.11-.02-.21.04-.31ZM36.45,60.91c-.05.1-.07.2-.04.31l.21.78c.03.11.09.19.19.25s.2.07.31.04l.78-.21c.11-.03.19-.09.25-.19s.07-.2.04-.31l-.21-.78c-.03-.11-.09-.19-.19-.25s-.2-.07-.31-.04l-.78.21c-.11.03-.19.09-.24.19ZM38.64,62.83c.06-.1.14-.16.25-.19l.78-.21c.11-.03.21-.02.31.04s.16.14.19.25l.21.78c.03.11.02.21-.04.31s-.14.16-.25.19l-.78.21c-.11.03-.21.02-.31-.04s-.16-.14-.19-.24l-.21-.78c-.03-.11-.01-.21.04-.31ZM37.95,57.18c-.06.1-.07.2-.04.31l.1.39c.03.11.09.19.19.25s.2.07.31.04l.78-.21c.11-.03.19-.09.25-.19s.07-.2.04-.31l-.1-.39c-.03-.11-.09-.19-.19-.25s-.2-.07-.31-.04l-.78.21c-.11.03-.19.09-.25.19ZM38.79,60.29c.06-.1.14-.16.25-.19l.78-.21c.11-.03.21-.02.31.04s.16.14.19.25l.21.78c.03.11.02.21-.04.31s-.14.16-.25.19l-.78.21c-.11.03-.21.02-.31-.04s-.16-.14-.19-.24l-.21-.78c-.03-.11-.01-.21.04-.31ZM40.98,62.21c-.05.1-.07.2-.04.31l.21.78c.03.11.09.19.19.25s.2.07.31.04l.78-.21c.11-.03.19-.09.25-.19s.07-.2.04-.31l-.21-.78c-.03-.11-.09-.19-.19-.25s-.2-.07-.31-.04l-.78.21c-.11.03-.19.09-.24.19ZM40.3,56.55c.06-.1.14-.16.25-.19l.78-.21c.11-.03.21-.02.31.04s.16.14.19.25l.1.39c.03.11.02.21-.04.31s-.14.16-.25.19l-.78.21c-.11.03-.21.02-.31-.04s-.16-.14-.19-.25l-.1-.39c-.03-.11-.02-.21.04-.31ZM41.13,59.66c-.05.1-.07.2-.04.31l.21.78c.03.11.09.19.19.25s.2.07.31.04l.78-.21c.11-.03.19-.09.25-.19s.07-.2.04-.31l-.21-.78c-.03-.11-.09-.19-.19-.25s-.2-.07-.31-.04l-.78.21c-.11.03-.19.09-.24.19ZM43.16,64.13c.06-.1.14-.16.25-.19l.78-.21c.11-.03.21-.02.31.04s.16.14.19.25l.21.78c.03.11.02.21-.04.31s-.14.16-.25.19l-.78.21c-.11.03-.21.02-.31-.04s-.16-.14-.19-.24l-.21-.78c-.03-.11-.01-.21.04-.31ZM43.31,61.58c.06-.1.14-.16.25-.19l.78-.21c.11-.03.21-.02.31.04s.16.14.19.25l.21.78c.03.11.02.21-.04.31s-.14.16-.25.19l-.78.21c-.11.03-.21.02-.31-.04s-.16-.14-.19-.24l-.21-.78c-.03-.11-.01-.21.04-.31ZM43.46,59.03c.06-.1.14-.16.25-.19l.78-.21c.11-.03.21-.02.31.04s.16.14.19.25l.21.78c.03.11.02.21-.04.31s-.14.16-.25.19l-.78.21c-.11.03-.21.02-.31-.04s-.16-.14-.19-.24l-.21-.78c-.03-.11-.01-.21.04-.31ZM42.63,55.92c-.06.1-.07.2-.04.31l.1.39c.03.11.09.19.19.25s.2.07.31.04l.78-.21c.11-.03.19-.09.25-.19s.07-.2.04-.31l-.1-.39c-.03-.11-.09-.19-.19-.25s-.2-.07-.31-.04l-.78.21c-.11.03-.19.09-.25.19Z"/>
    </g>
  </g>
</svg>